<svg xmlns="http://www.w3.org/2000/svg" fill="none" viewBox="0 0 16 16"><path fill="#000" fill-rule="evenodd" d="M8 1a7 7 0 1 0 0 14A7 7 0 0 0 8 1ZM4.5 8a3.5 3.5 0 1 1 7 0 3.5 3.5 0 0 1-7 0Z" clip-rule="evenodd"/><path fill="#000" d="M8 1c.3 0 .6.1.8.3l1.2 1.2c.2.2.3.5.3.8v1.4c0 .3-.1.6-.3.8L8.8 6.7c-.2.2-.5.3-.8.3H6.6c-.3 0-.6-.1-.8-.3L4.6 4.5a1.2 1.2 0 0 1-.3-.8V2.3c0-.3.1-.6.3-.8L5.8 1.3c.2-.2.5-.3.8-.3H8Zm0 12.5c.3 0 .6-.1.8-.3l1.2-1.2c.2-.2.3-.5.3-.8v-1.4c0-.3-.1-.6-.3-.8L8.8 9.3c-.2-.2-.5-.3-.8-.3H6.6c-.3 0-.6.1-.8.3l-1.2 1.2c-.2.2-.3.5-.3.8v1.4c0 .3.1.6.3.8l1.2 1.2c.2.2.5.3.8.3H8Z"/></svg>
