<svg xmlns="http://www.w3.org/2000/svg" fill="none" viewBox="0 0 394 80"><path fill="#000" d="M262 0h68.5v12.7h-27.2v66.6h-13.6V12.7H262V0ZM149 0v12.7H94v20.4h44.3v12.6H94v21h55v12.6H80.5V0h68.7Zm34.3 0h-17.8l63.8 79.4h17.9l-32-39.7 32-39.6h-17.9l-23 28.6-23-28.6Zm18.3 56.7-9-11-65.2 65.9h17.1l57-57.7Z"/><path fill="#000" d="M81 79.3 17 0H0v79.3h13.6V17l50.2 62.3H81Zm252.6-.4c-1 0-1.8-.4-2.5-1s-1.1-1.6-1.1-2.6.3-1.8 1-2.5 1.6-1 2.6-1 1.8.3 2.5 1a3.4 3.4 0 0 1 .6 4.3 3.7 3.7 0 0 1-3 1.8zm23.2-33.5h6v23.3c0 2.1-.4 4-1.3 5.5a9.1 9.1 0 0 1-3.8 3.5c-1.6.8-3.5 1.3-5.7 1.3-2 0-3.7-.4-5.3-1s-2.8-1.8-3.7-3.2c-.9-1.4-1.4-3-1.4-5h6c.1.8.3 1.5.7 2.1s1 1.2 1.6 1.5c.7.4 1.5.5 2.4.5 1 0 1.8-.2 2.4-.6a4 4 0 0 0 1.6-1.8c.3-.8.5-1.8.5-3V45.5zm30.9 9.1a4.4 4.4 0 0 0-2-3.3 7.5 7.5 0 0 0-4.3-1.1c-1 0-2 .1-3 .4-.9.2-1.7.6-2.4 1a4 4 0 0 0-.8.6 6 6 0 0 0-.8.8 5 5 0 0 0-.6 1 4 4 0 0 0-.2 1v.2h19.1v-.2Zm6.9 14.5h-6.7v-2.2h-.1a8 8 0 0 1-2.8 2 9.5 9.5 0 0 1-4 1c-1.5 0-2.8-.3-4-.8a7 7 0 0 1-3-2.2 9.6 9.6 0 0 1-1.8-3.4c-.4-1.3-.6-2.8-.6-4.3V45.3h6.7v17.8c0 1 .2 1.9.5 2.7.4.8 1 1.4 1.7 1.8s1.6.7 2.7.7c1 0 1.9-.2 2.7-.6.8-.4 1.4-1 1.9-1.8.5-.8.7-1.8.7-3V45.3h6.7v28.4ZM163 0v12.7h-27.2v66.6h-13.6V12.7H95V0h68.5Z"/><path fill="#000" d="M163 139.5h-13.6v-66.6H95v-12.7h68.5v79.3Zm34.3-79.3h17.9l-32 39.7 32 39.6h-17.9l-23-28.6-23 28.6h-17.8l63.8-79.4Z"/></svg>
