<svg xmlns="http://www.w3.org/2000/svg" fill="none" viewBox="0 0 283 64"><path fill="#000" d="M141 16c-11 0-19 7-19 18s9 18 20 18c7 0 13-3 16-7l-7-5c-2 3-6 4-9 4-5 0-9-3-10-7h28v-3c0-11-8-18-19-18Zm-9 15c1-4 4-7 9-7s8 3 9 7h-18Zm117-15c-11 0-19 7-19 18s9 18 20 18c6 0 12-3 16-7l-8-5c-2 3-5 4-8 4-5 0-9-3-11-7h28v-3c0-11-8-18-19-18Zm-8 15c2-4 5-7 10-7s8 3 9 7h-19Zm-39 3c0 6-4 10-10 10S82 39 82 33s4-10 10-10 10 4 10 10Zm-10-18c-9 0-17 6-17 18s8 18 17 18 17-6 17-18-8-18-17-18Zm86-13c0 6-4 10-10 10s-10-4-10-10 4-10 10-10 10 4 10 10ZM107 0H94L62 64h13l6-16h28l6 16h13L107 0Zm-13 39 10-26 10 26h-20Z"/></svg>
